<?xml version="1.0" standalone="no"?><!DOCTYPE svg PUBLIC "-//W3C//DTD SVG 1.1//EN" "http://www.w3.org/Graphics/SVG/1.1/DTD/svg11.dtd"><svg class="icon" height="512" viewBox="0 0 1024 1024" version="1.1" xmlns="http://www.w3.org/2000/svg"><path d="M181.443445 890.602827a330.662979 68.348668 0 1 0 661.325957 0 330.662979 68.348668 0 1 0-661.325957 0Z" fill="#000E3E" /><path d="M842.769402 396.342864c0-182.614108-148.046824-330.656839-330.665025-330.656839-182.614108 0-330.660932 148.042731-330.660932 330.656839 0 85.190241 32.223912 162.864298 85.142146 221.481323h-0.179079l197.614754 249.776764 0.2415-0.349971a60.395532 60.395532 0 0 0 47.837518 23.476691c19.569708 0 36.97103-9.302877 48.021713-23.717168l0.420579 0.591471L758.144026 617.824187h-0.530072c52.939723-58.621119 85.155449-136.291083 85.155448-221.481323z" fill="#00A7FF" /></svg>